<svg width="319" height="296" viewBox="0 0 319 296" fill="none" xmlns="http://www.w3.org/2000/svg">
<g clip-path="url(#clip0_113_112)">
<path d="M45.5735 246.464H39.6124C39.2599 244.749 38.6429 243.243 37.7616 241.945C36.8963 240.647 35.8386 239.557 34.5887 238.676C33.3549 237.779 31.9848 237.106 30.4785 236.657C28.9722 236.208 27.4018 235.984 25.7673 235.984C22.7867 235.984 20.0866 236.737 17.6669 238.243C15.2633 239.75 13.3484 241.969 11.9222 244.901C10.512 247.834 9.80695 251.431 9.80695 255.694C9.80695 259.956 10.512 263.554 11.9222 266.486C13.3484 269.419 15.2633 271.638 17.6669 273.144C20.0866 274.651 22.7867 275.404 25.7673 275.404C27.4018 275.404 28.9722 275.18 30.4785 274.731C31.9848 274.282 33.3549 273.617 34.5887 272.736C35.8386 271.838 36.8963 270.741 37.7616 269.443C38.6429 268.129 39.2599 266.623 39.6124 264.924H45.5735C45.1248 267.44 44.3076 269.691 43.1217 271.678C41.9359 273.665 40.4617 275.356 38.699 276.75C36.9363 278.128 34.9573 279.178 32.7619 279.899C30.5826 280.62 28.2511 280.98 25.7673 280.98C21.5689 280.98 17.8352 279.955 14.5662 277.904C11.2972 275.853 8.7253 272.936 6.85044 269.154C4.97559 265.373 4.03816 260.886 4.03816 255.694C4.03816 250.502 4.97559 246.015 6.85044 242.233C8.7253 238.452 11.2972 235.535 14.5662 233.484C17.8352 231.433 21.5689 230.407 25.7673 230.407C28.2511 230.407 30.5826 230.768 32.7619 231.489C34.9573 232.21 36.9363 233.268 38.699 234.662C40.4617 236.04 41.9359 237.722 43.1217 239.709C44.3076 241.68 45.1248 243.932 45.5735 246.464ZM132.893 246.464H126.932C126.579 244.749 125.962 243.243 125.081 241.945C124.215 240.647 123.158 239.557 121.908 238.676C120.674 237.779 119.304 237.106 117.798 236.657C116.291 236.208 114.721 235.984 113.086 235.984C110.106 235.984 107.406 236.737 104.986 238.243C102.582 239.75 100.667 241.969 99.2413 244.901C97.8311 247.834 97.1261 251.431 97.1261 255.694C97.1261 259.956 97.8311 263.554 99.2413 266.486C100.667 269.419 102.582 271.638 104.986 273.144C107.406 274.651 110.106 275.404 113.086 275.404C114.721 275.404 116.291 275.18 117.798 274.731C119.304 274.282 120.674 273.617 121.908 272.736C123.158 271.838 124.215 270.741 125.081 269.443C125.962 268.129 126.579 266.623 126.932 264.924H132.893C132.444 267.44 131.627 269.691 130.441 271.678C129.255 273.665 127.781 275.356 126.018 276.75C124.255 278.128 122.276 279.178 120.081 279.899C117.902 280.62 115.57 280.98 113.086 280.98C108.888 280.98 105.154 279.955 101.885 277.904C98.6163 275.853 96.0444 272.936 94.1696 269.154C92.2947 265.373 91.3573 260.886 91.3573 255.694C91.3573 250.502 92.2947 246.015 94.1696 242.233C96.0444 238.452 98.6163 235.535 101.885 233.484C105.154 231.433 108.888 230.407 113.086 230.407C115.57 230.407 117.902 230.768 120.081 231.489C122.276 232.21 124.255 233.268 126.018 234.662C127.781 236.04 129.255 237.722 130.441 239.709C131.627 241.68 132.444 243.932 132.893 246.464ZM147.429 258.098V280.307H141.756V231.08H147.429V249.156H147.91C148.775 247.249 150.073 245.735 151.803 244.613C153.55 243.475 155.874 242.906 158.774 242.906C161.29 242.906 163.493 243.411 165.384 244.421C167.275 245.414 168.741 246.945 169.783 249.012C170.84 251.063 171.369 253.675 171.369 256.848V280.307H165.697V257.232C165.697 254.3 164.935 252.032 163.413 250.43C161.907 248.811 159.816 248.002 157.14 248.002C155.281 248.002 153.614 248.395 152.14 249.18C150.682 249.965 149.528 251.111 148.679 252.617C147.845 254.123 147.429 255.95 147.429 258.098ZM192.612 281.173C190.272 281.173 188.149 280.732 186.242 279.851C184.335 278.953 182.821 277.663 181.699 275.981C180.577 274.282 180.016 272.231 180.016 269.827C180.016 267.712 180.433 265.998 181.266 264.684C182.1 263.354 183.213 262.312 184.607 261.559C186.002 260.806 187.54 260.245 189.222 259.876C190.921 259.492 192.628 259.187 194.342 258.963C196.586 258.674 198.404 258.458 199.799 258.314C201.209 258.154 202.234 257.889 202.875 257.521C203.532 257.152 203.861 256.511 203.861 255.598V255.405C203.861 253.034 203.212 251.191 201.914 249.877C200.632 248.563 198.685 247.906 196.073 247.906C193.365 247.906 191.242 248.499 189.703 249.685C188.165 250.87 187.083 252.136 186.458 253.482L181.074 251.56C182.036 249.316 183.317 247.569 184.92 246.32C186.538 245.054 188.301 244.172 190.208 243.676C192.131 243.163 194.022 242.906 195.881 242.906C197.066 242.906 198.429 243.051 199.967 243.339C201.521 243.611 203.02 244.18 204.462 245.046C205.92 245.911 207.13 247.217 208.091 248.964C209.053 250.71 209.533 253.05 209.533 255.982V280.307H203.861V275.308H203.572C203.188 276.109 202.547 276.966 201.649 277.88C200.752 278.793 199.558 279.57 198.068 280.211C196.578 280.852 194.759 281.173 192.612 281.173ZM193.477 276.077C195.72 276.077 197.611 275.636 199.15 274.755C200.704 273.874 201.874 272.736 202.659 271.342C203.46 269.948 203.861 268.481 203.861 266.943V261.751C203.62 262.04 203.092 262.304 202.274 262.544C201.473 262.769 200.544 262.969 199.486 263.145C198.445 263.305 197.427 263.45 196.433 263.578C195.456 263.69 194.663 263.786 194.054 263.866C192.58 264.059 191.202 264.371 189.92 264.804C188.654 265.22 187.628 265.853 186.843 266.703C186.074 267.536 185.689 268.674 185.689 270.116C185.689 272.087 186.418 273.577 187.876 274.587C189.351 275.58 191.218 276.077 193.477 276.077ZM219.887 280.307V243.387H225.368V248.964H225.752C226.425 247.137 227.643 245.655 229.406 244.517C231.168 243.379 233.155 242.81 235.367 242.81C235.783 242.81 236.304 242.818 236.929 242.834C237.554 242.85 238.027 242.874 238.347 242.906V248.675C238.155 248.627 237.714 248.555 237.025 248.459C236.352 248.347 235.639 248.291 234.886 248.291C233.091 248.291 231.489 248.667 230.079 249.42C228.685 250.157 227.579 251.183 226.762 252.497C225.961 253.795 225.56 255.277 225.56 256.944V280.307H219.887ZM258.851 294.922C256.11 294.922 253.755 294.569 251.784 293.864C249.813 293.175 248.17 292.262 246.856 291.124C245.558 290.002 244.525 288.8 243.756 287.518L248.275 284.346C248.787 285.019 249.436 285.788 250.221 286.653C251.007 287.534 252.08 288.296 253.442 288.937C254.821 289.594 256.623 289.922 258.851 289.922C261.831 289.922 264.291 289.201 266.23 287.759C268.169 286.317 269.138 284.057 269.138 280.98V273.481H268.658C268.241 274.154 267.648 274.987 266.879 275.981C266.126 276.958 265.036 277.832 263.61 278.601C262.2 279.354 260.293 279.73 257.889 279.73C254.909 279.73 252.233 279.025 249.861 277.615C247.505 276.205 245.639 274.154 244.26 271.462C242.898 268.77 242.217 265.501 242.217 261.655C242.217 257.873 242.882 254.58 244.212 251.776C245.542 248.956 247.393 246.776 249.765 245.238C252.136 243.684 254.877 242.906 257.985 242.906C260.389 242.906 262.296 243.307 263.706 244.108C265.132 244.893 266.222 245.791 266.975 246.8C267.744 247.794 268.337 248.611 268.754 249.252H269.331V243.387H274.811V281.365C274.811 284.538 274.09 287.118 272.648 289.105C271.222 291.108 269.299 292.574 266.879 293.503C264.475 294.449 261.799 294.922 258.851 294.922ZM258.658 274.635C260.934 274.635 262.857 274.114 264.427 273.072C265.998 272.031 267.191 270.532 268.009 268.577C268.826 266.623 269.234 264.283 269.234 261.559C269.234 258.899 268.834 256.551 268.033 254.516C267.231 252.481 266.046 250.887 264.475 249.733C262.905 248.579 260.966 248.002 258.658 248.002C256.255 248.002 254.252 248.611 252.649 249.829C251.063 251.047 249.869 252.681 249.068 254.732C248.283 256.784 247.89 259.059 247.89 261.559C247.89 264.123 248.291 266.39 249.092 268.361C249.909 270.316 251.111 271.854 252.697 272.976C254.3 274.082 256.287 274.635 258.658 274.635ZM300.674 281.077C297.117 281.077 294.048 280.291 291.468 278.721C288.904 277.135 286.925 274.923 285.531 272.087C284.153 269.234 283.464 265.917 283.464 262.136C283.464 258.354 284.153 255.021 285.531 252.136C286.925 249.236 288.864 246.977 291.348 245.358C293.848 243.724 296.764 242.906 300.098 242.906C302.02 242.906 303.919 243.227 305.794 243.868C307.669 244.509 309.376 245.55 310.914 246.993C312.452 248.419 313.678 250.31 314.592 252.665C315.505 255.021 315.962 257.921 315.962 261.366V263.77H287.502V258.867H310.193C310.193 256.784 309.776 254.925 308.943 253.29C308.126 251.656 306.956 250.366 305.434 249.42C303.927 248.475 302.149 248.002 300.098 248.002C297.838 248.002 295.883 248.563 294.233 249.685C292.598 250.79 291.34 252.233 290.459 254.011C289.577 255.79 289.137 257.697 289.137 259.732V263.001C289.137 265.789 289.618 268.153 290.579 270.092C291.557 272.015 292.911 273.481 294.641 274.491C296.372 275.484 298.383 275.981 300.674 275.981C302.165 275.981 303.511 275.772 304.713 275.356C305.93 274.923 306.98 274.282 307.861 273.433C308.743 272.568 309.424 271.494 309.904 270.212L315.385 271.75C314.808 273.609 313.838 275.244 312.476 276.654C311.114 278.048 309.432 279.138 307.429 279.923C305.426 280.692 303.174 281.077 300.674 281.077Z" fill="#169E16"/>
<path d="M164.342 16.6212C114.681 16.6212 74.2783 57.0238 74.2783 106.686C74.2783 113.08 74.9517 119.317 76.225 125.337C81.597 121.534 86.4397 117.002 91.7823 113.134C98.3623 108.369 104.914 103.576 111.381 98.6598C115.265 72.9172 137.534 53.1212 164.342 53.1212C176.049 53.1212 186.882 56.9065 195.706 63.3038C201.77 57.7452 208.333 52.7532 214.948 47.8478C218.338 45.3345 221.69 42.7438 225.129 40.2878C209.097 25.5985 187.749 16.6212 164.342 16.6212Z" fill="#169E16"/>
<path d="M234.916 160.395C232.457 158.403 230.015 156.403 227.697 154.303C221.301 148.511 215.065 142.544 208.549 136.892C198.889 150.984 182.68 160.251 164.343 160.251C154.481 160.251 145.24 157.567 137.299 152.899C134.683 155.867 132.049 158.82 129.457 161.803C125.9 165.898 122.261 169.947 118.888 174.194C117.079 176.472 115.341 178.783 113.411 180.919C127.907 190.898 145.452 196.751 164.343 196.751C193.183 196.751 218.889 183.116 235.385 161.963C235.151 161.446 234.992 160.92 234.916 160.395Z" fill="#169E16"/>
<path d="M159.482 103.716L110.894 110.705L111.822 95.7238L76.225 125.337L107.632 125.092L56.377 234.59L159.482 103.716Z" fill="#FFBA1E"/>
<path d="M255.681 116.512H250.094V89.2773H255.681V116.512Z" fill="#169E16"/>
<path d="M266.505 105.688H239.27V100.101H266.505V105.688Z" fill="#169E16"/>
<path d="M76.113 154.437C67.9704 139.765 63.3157 122.903 63.3157 104.967C63.3157 48.5587 109.208 2.66666 165.616 2.66666C192.686 2.66666 217.316 13.256 235.632 30.4853C236.26 29.8573 236.889 29.228 237.517 28.6C218.717 10.8893 193.421 0 165.616 0C107.737 0 60.649 47.088 60.649 104.967C60.649 123.865 65.6957 141.597 74.473 156.932C75.021 156.101 75.5664 155.269 76.113 154.437Z" fill="#FFBA1E"/>
<path d="M243.728 170.918C224.948 193.126 196.908 207.265 165.615 207.265C145.524 207.265 126.776 201.433 110.955 191.385C110.518 192.164 110.079 192.934 109.636 193.694C125.846 203.968 145.042 209.932 165.615 209.932C197.643 209.932 226.348 195.496 245.618 172.808L243.728 170.918Z" fill="#FFBA1E"/>
<path d="M84.2347 258.836H57V253.249H84.2347V258.836Z" fill="#169E16"/>
<path d="M67.8253 242.425H73.412V269.66H67.8253V242.425Z" fill="#169E16"/>
</g>
<defs>
<clipPath id="clip0_113_112">
<rect width="319" height="296" fill="white"/>
</clipPath>
</defs>
</svg>
